<?xml version="1.0" standalone="no"?>
<!DOCTYPE svg PUBLIC "-//W3C//DTD SVG 20010904//EN"
 "http://www.w3.org/TR/2001/REC-SVG-20010904/DTD/svg10.dtd">
<svg version="1.0" xmlns="http://www.w3.org/2000/svg"
 width="3132.000000pt" height="3160.000000pt" viewBox="0 0 3132.000000 3160.000000"
 preserveAspectRatio="xMidYMid meet">

<g transform="translate(0.000000,3160.000000) scale(0.100000,-0.100000)"
fill="#FFFFFF" stroke="none">
<path d="M14942 25633 c-396 -687 -912 -1581 -1147 -1988 -235 -407 -1251
-2166 -2258 -3910 -1006 -1743 -1887 -3269 -1957 -3390 -70 -121 -254 -440
-410 -710 -156 -269 -408 -706 -560 -970 -152 -264 -623 -1078 -1045 -1810
-422 -731 -926 -1604 -1120 -1940 -194 -335 -537 -929 -762 -1320 -226 -390
-546 -946 -713 -1234 l-303 -524 49 -46 c27 -25 213 -201 414 -391 201 -190
523 -493 715 -675 192 -181 438 -413 545 -515 108 -102 272 -257 365 -345 94
-88 213 -201 265 -251 52 -50 221 -209 375 -354 296 -278 421 -397 521 -493
l61 -58 1314 937 c723 516 1784 1273 2359 1682 575 410 1407 1004 1849 1319
l803 573 -1952 0 c-1771 0 -1952 1 -1946 16 3 8 344 601 758 1317 413 716 978
1696 1256 2177 278 481 625 1082 771 1335 146 254 761 1319 1366 2367 605
1048 1103 1903 1107 1900 4 -4 239 -410 524 -902 284 -492 659 -1142 834
-1445 174 -302 755 -1308 1290 -2235 1822 -3156 1983 -3435 2296 -3978 173
-298 314 -545 314 -547 0 -3 -887 -6 -1970 -7 l-1971 -3 213 -146 c117 -80
688 -471 1268 -869 580 -398 1690 -1158 2465 -1690 776 -532 1683 -1154 2017
-1383 l608 -417 243 248 c832 847 2692 2746 2784 2842 l71 75 -55 95 c-49 85
-2119 3669 -3196 5535 -225 391 -502 870 -615 1065 -318 551 -785 1360 -1940
3360 -586 1015 -1156 2003 -1267 2195 -536 928 -2591 4487 -3468 6008 -238
411 -435 747 -438 747 -4 0 -331 -561 -727 -1247z"/>
</g>
</svg>
